<svg version="1" xmlns="http://www.w3.org/2000/svg" width="1333.333" height="1333.333" viewBox="0 0 1000.000000 1000.000000"><path d="M473.7 47.7c-.2.1-4.4.5-9.3.8-4.9.3-10.5.7-12.4 1-1.9.2-6.2.7-9.5 1-3.3.4-7.3.9-9 1.2-3.8.6-5.7.9-12 1.8-2.7.4-6.9 1.1-9.3 1.6-2.3.5-5.9 1.2-8 1.5-2 .3-4.6.8-5.7 1.1-2.1.7-2.5.8-6.5 1.6-4.3.9-11.3 2.7-20.5 5.2-3.3.9-6.4 1.7-7 1.9-.5.1-3.5 1-6.5 2-7.3 2.3-8 2.5-8.3 2.5-1.7 0-38.2 14.3-38.5 15.3-.2.4-1.9 1-3.8 1.4-1.9.3-3.4 1-3.4 1.5s-.6.9-1.2.9c-1.6 0-26.2 12.2-26.6 13.2-.2.5-.8.8-1.3.8-1.7 0-28.9 16.7-41.1 25.3-22.9 16.1-37.3 28.2-57.8 48.7-17.5 17.4-27.1 28.2-38.2 42.9-3.1 4.2-6.3 8.3-7.1 9.1-4.2 4.6-27.7 41.7-27.7 43.8 0 .6-.4 1.2-.8 1.4-1.1.4-11.4 19.8-10.5 19.8.3 0 0 .8-.8 1.7-1.5 1.8-4 6.8-7.7 15.3-1 2.5-3.3 7.7-5.1 11.6-1.7 3.9-3.1 7.3-3.1 7.7 0 .3-.5 1.8-1.2 3.4-.6 1.5-1.3 3.2-1.4 3.8-1.1 3.4-10.7 32.3-11.2 33.5-.3.8-.7 2.4-.9 3.5-.2 1.1-1.1 4.5-2 7.5-.9 3-1.7 6.2-1.9 7-.3 2-1.1 5.8-2.9 13.4-.8 3.3-1.6 7.4-1.9 9.1-.3 1.6-1.2 7.3-2.1 12.5-.9 5.2-1.9 11.3-2.1 13.5-.2 2.2-.7 6.2-1 9-.3 2.7-.7 6.6-.9 8.5-2.5 22.1-2.4 73.9 0 92 .3 1.9.8 6.2 1.1 9.5.8 8.5 1.2 11.6 1.7 14.5.3 1.4 1.1 5.9 1.7 10 .6 4.1 1.5 8.8 2 10.5.5 1.6 1.1 4.8 1.4 7 .3 2.2 1.1 5.8 1.7 8 .5 2.2 1.2 4.9 1.4 6 .2 1.1.9 3.8 1.5 6s1.3 4.9 1.5 6.1c.3 1.1 1.4 5 2.6 8.5 1.1 3.5 2.2 7.1 2.4 7.9.2.8 2 6.2 4 12s3.9 11.5 4.2 12.8c.3 1.2.8 2.2 1.2 2.2.4 0 .7 1 .8 2.2.1 1.1.8 2.5 1.5 2.9.7.5 1 .9.6.9s.5 2.6 1.9 5.7c2.9 6.7 4.6 10.6 4.8 11.3 1.1 4.2 21.2 41.6 26.7 49.7 1.5 2.3 2.8 4.5 2.8 4.9 0 .4 1 1.8 2.2 3.1l2.1 2.3-2.5 2.2c-1.4 1.3-5.5 5-9.2 8.3-3.7 3.3-7.8 6.9-9 8-1.2 1.1-5.5 4.9-9.5 8.5-15.5 13.8-43.6 41.2-55.5 54.1C21 844.6 19.5 846.4 15.5 852c-2.2 3-4.2 5.7-4.5 6-.7.7-2.7 4.9-3.9 8.1-2 5.6 2.7 7.4 12.4 4.7 3.8-1.1 7.6-2.5 8.4-3.1.8-.7 1.6-1.1 1.7-1 .5.3 2.9-.5 7.9-2.8 2.2-.9 4.4-1.7 4.9-1.7s1.2-.4 1.5-.9c.3-.4 4.7-2.8 9.6-5.2 5-2.4 9.8-5.1 10.8-5.9.9-.8 1.7-1.2 1.7-.9 0 .4 2.3-.7 5-2.3 2.8-1.7 5.5-3 6-3 .6 0 1-.4 1-.9s.8-1.1 1.8-1.4c.9-.4 3.5-1.7 5.7-3s6.3-3.6 9-5.1c2.8-1.6 6.9-4.1 9.3-5.7 2.4-1.6 4.5-2.9 4.8-2.9.2 0 9.8-5.9 21.3-13 11.5-7.2 21.3-13 21.7-13 .3 0 3 2.6 5.8 5.7 10.9 12.3 35.4 35.9 44.9 43.5 15.5 12.3 24.1 18.8 27.7 21.3 2.5 1.6 4.7 3.3 4.8 3.7.2.5 1 .8 1.7.8s1.5.4 1.7.8c.3.7 5.2 4 16.2 10.7 24 14.7 55.8 30.1 80.7 39 20 7.2 52.6 16.5 66.4 18.8 1.7.3 6.5 1.2 10.9 2.1 4.3.9 8.3 1.3 8.7 1 .5-.3.9-.2.9.3 0 .4 1.2.9 2.8.9 1.5.1 4.9.5 7.7.9 8.4 1.3 9.8 1.4 17 2 3.9.4 9.5.9 12.5 1.2 7.2.7 64.2 1.3 65.2.7.4-.3 4.9-.7 10-.9 5.1-.3 11.1-.7 13.3-1 6.7-.9 10.8-1.4 15.5-2 2.5-.3 9.9-1.5 16.5-2.7 6.6-1.1 12.9-2.2 14-2.4 1.1-.1 2.9-.5 4-.8 7.4-1.7 17-3.9 18.4-4.1.9-.2 1.7-.4 1.9-.5.1-.2.7-.4 1.2-.5.6-.1 1.1-.3 1.3-.5.1-.1 1.1-.3 2.1-.5 1.1-.2 3.1-.7 4.5-1.1 1.4-.4 2.9-.8 3.4-.9.4-.2.8-.3 1-.5.1-.1 1-.3 1.9-.5 4.2-.8 28.7-9.2 35.8-12.3 1.9-.9 4.2-1.7 5-1.8.8-.2 2.3-.7 3.5-1.3 3.4-1.6 14-6.4 14.5-6.6 1.5-.4 8.7-3.6 10-4.4.8-.5 6.2-3.3 12-6.1 5.8-2.9 10.7-5.7 10.8-6.1.2-.5.7-.9 1.2-.9 1.2 0 15.4-8.3 15.8-9.2.2-.4.8-.8 1.3-.8 1.8 0 26.3-16.8 37.9-26 3.1-2.5 7.4-5.9 9.5-7.5 2.1-1.7 5-4.1 6.5-5.5 1.4-1.4 5.5-5 9.1-8.2 12.1-10.6 27.6-26.5 39.4-40.3 3.2-3.9 6.5-7.7 7.2-8.5.8-.8 5-6.2 9.3-12 4.4-5.8 8.4-11 8.8-11.5.5-.6 1.1-1.5 1.3-2 .2-.6 4.2-6.9 8.9-14 4.7-7.2 9.1-14 9.8-15 .6-1.1 1.8-3.1 2.4-4.5.7-1.4 1.5-2.7 1.8-3 .3-.3 1.5-2.6 2.8-5.2 1.3-2.6 2.7-5 3.3-5.3.5-.4.9-1.5.9-2.6 0-1 .3-1.9.8-1.9.4 0 1.8-2.4 3.1-5.3 1.3-2.8 3.9-8.2 5.7-12 1.9-3.7 3.4-7.4 3.4-8.2 0-.8.5-1.5 1-1.5.6 0 .9-.3.8-.8-.2-.6 2.8-8.7 6.8-17.9.8-1.7 1.4-3.4 1.4-3.8 0-.4.6-2.1 1.4-3.8 1.8-4.3 5.9-16.9 5.9-18.5 0-.6.3-1.2.7-1.2.4 0 .7-.6.7-1.3 0-.6.9-4.4 2.1-8.2 1.2-3.9 2.9-10.2 3.8-14 .8-3.9 1.8-7.7 2.1-8.5.3-.8.7-2.2.8-3 .6-3.8 1.6-8.4 2-8.9.2-.4.6-2.7 1-5.1.3-2.5 1-6 1.5-7.7.4-1.8.6-3.3.4-3.3-.3 0 0-.9.6-2 .8-1.5.8-2-.2-2-.8 0-.9-.3-.3-.8.6-.4 1.1-1.8 1.2-3.2.2-2.5.7-6.6 1.7-13.9 2.5-18 3-26.8 3-56.6 0-24.5-.5-40-1.8-50-.2-1.1-.6-5.2-1.1-9-.4-3.9-1-7.9-1.2-9-.3-1.1-.6-3.6-.8-5.5-.2-1.9-.4-3.5-.5-3.5-.1 0-.3-1.4-.4-3-.2-1.7-.6-4.4-1-6-.3-1.7-.9-4-1.1-5.3-.3-1.2-.7-3.2-1-4.5-.3-1.2-.8-3.8-1.1-5.7-.3-1.9-1.2-5.2-1.9-7.2-.7-2.1-.9-3.6-.5-3.3.4.3.1-1.4-.7-3.8-.8-2.3-1.7-5-1.9-6-.7-3.7-8.1-28.2-9.4-31.2-.9-2.1-5.4-14.7-5.6-15.5 0-.3-.5-1.6-1.1-3-.6-1.4-1.8-4.3-2.7-6.5-.9-2.2-2.4-5.8-3.4-8-2.3-5.5-18.9-38.3-21.3-42-1-1.7-2.4-4.2-3-5.8-.6-1.5-1.5-2.7-1.9-2.7-.5 0-1.2-1-1.5-2.1-.8-2.4-6.5-11-8-12.1-.5-.4-.2-1 .8-1.4.9-.3 1.7-1.2 1.7-2s.4-1.4 1-1.4c.8 0 4.1-2.8 13.5-11.5 1.2-1.1 3.9-3.5 6.1-5.4 15.6-13.5 55.3-52.2 66.7-65.1 13.7-15.6 22.1-29.5 19.6-32.5-.4-.6-2.3-1.2-4.1-1.3-3.4-.3-12.8 1.8-12.8 2.8 0 .3-.8.6-1.7.7-2.7.2-31.4 13.4-33.3 15.3-.3.3-3.2 1.8-6.4 3.5-5.1 2.6-17.6 9.5-22.6 12.6-.8.5-3.3 1.8-5.5 3s-5.4 3.2-7.2 4.5c-1.7 1.3-3.4 2.4-3.7 2.4-.7 0-35.2 21.1-41.3 25.2-2.3 1.5-4.7 2.8-5.3 2.8-.6 0-3-2.1-5.3-4.7-11.7-13.1-41.2-41.5-48.1-46.3-1.2-.8-3-2.3-4.1-3.3-1.1-1-5.6-4.5-10-7.8-4.4-3.2-8.4-6.2-9-6.7-2-1.6-20.1-13.8-24-16.1-19.5-11.7-36.6-20.8-55.5-29.4-6.7-3.1-23.1-9.7-24.1-9.7-.3 0-2.4-.8-4.5-1.7-2.2-.9-4.1-1.7-4.4-1.8-.3-.1-6.6-2-14-4.4-17.3-5.5-17.4-5.5-18-5.6-.3-.1-2.4-.5-4.7-.9-2.4-.4-4.5-1.2-4.9-1.7-.3-.5-.9-.7-1.3-.5-.4.3-4.1-.4-8.2-1.4-4.1-1-8.7-2.1-10.4-2.4-1.6-.2-5.5-1-8.5-1.6-3-.6-7.5-1.3-10-1.6-2.5-.2-5.6-.7-7-.9-8-1.6-22.9-3.3-35-4-3.6-.2-6.5-.5-6.5-.6 0-.4-57.5-.6-57.8-.2zm42.8 143.7c5 .3 11 .8 13.5 1.1 2.5.3 6.1.8 8 1 1.9.3 5.1.7 7 .9 6.3.8 33.3 6.8 34 7.5.3.3 1.4.7 2.5.9 8.4 1.4 35.8 12.3 51.9 20.7 14.6 7.6 40.8 24.2 44.1 28.1.6.6 2.1 1.8 3.4 2.7 5.4 3.6 25.3 22.3 34.4 32.3l2.7 3-9.2 6.4c-9.4 6.5-10.7 7.5-13.3 9.7-.7.7-1.7 1.3-2 1.3-.4 0-2.8 1.5-5.3 3.2-6.4 4.5-6.3 4.5-9.8 7.3-1.8 1.4-3.7 2.5-4.3 2.5-.6 0-1.1.4-1.1 1 0 .5-.6 1-1.4 1-.8 0-1.6.4-1.8.8-.1.4-2.5 2.3-5.3 4.2-2.7 1.9-5.2 3.7-5.5 4.1-.6.6-26.2 18.8-28.8 20.4-.9.5-2.1 1.4-2.8 2-3.9 3.3-5.5 4.5-6 4.5-.3 0-1.9 1-3.4 2.2-1.5 1.3-4 3.2-5.6 4.3-1.5 1.1-4.6 3.4-6.8 5-2.3 1.7-6.3 4.6-9.1 6.5-2.7 1.9-5.6 4-6.5 4.7-.8.7-5.8 4.4-11 8.2-5.2 3.8-10.6 7.8-12 8.9-1.4 1.1-7.4 5.7-13.5 10.3-6 4.5-11.5 8.5-12.1 9-.5.5-2.3.1-4-.7-8.3-4.4-21.3-7.6-31.6-7.8-2.5-.1-4.4-.5-4-1 .3-.5 0-.6-.7-.2-.7.4-3.8.9-6.9 1.1-3.1.1-7.7.6-10.2 1.1-2.5.4-4.8.8-5.2.8-.3.1-1 .4-1.4.8-.4.5-1.6.8-2.6.8-2.6 0-17.4 6.8-22.3 10.3-2.2 1.5-5.1 3.5-6.5 4.5-4.8 3.2-15.2 14.7-20.3 22.3-2.8 4.2-4.8 7.9-4.6 8.1.2.2-.4 1.7-1.4 3.2-5.7 8.6-9.5 26.7-9.3 44l.1 12.9-16.5 12.5c-9.1 6.9-16.9 13-17.5 13.4-.5.5-6.4 5-13.1 10.1-6.6 5.1-13.4 10.3-15 11.7-1.7 1.4-4.6 3.6-6.4 5-7.7 5.8-23.5 18.5-23.8 19.2-.2.5-.8.8-1.4.8-.5 0-1.5.6-2.2 1.2-.7.7-2.8 2.4-4.6 3.8-1.8 1.4-3.8 3-4.4 3.5-.6.6-6.3 5.1-12.6 10-6.3 5-12.2 9.7-13.2 10.5-.9.8-2.3 2-3 2.5-6.4 5-32.4 26-32.8 26.5-.7 1-5.1 3.2-5.4 2.8-1-1.2-7.6-16-7.6-16.8 0-.5-.5-1-1.2-1-.6 0-.9-.3-.5-.6.3-.3-1.2-4.8-3.3-9.9-2.2-5.1-4.1-10.4-4.4-11.7-.3-1.2-1.4-4.6-2.5-7.5-1.1-2.8-2.2-6.2-2.5-7.5-.3-1.3-1.2-4.8-2.2-7.8-.9-3-1.8-6.2-2-7-1.3-7-1.6-8.9-2.4-12-1.1-4.3-2.1-9.5-2.5-13.5-.2-1.7-.4-3-.5-3-.4 0-2.2-16.3-2.5-21.5 0-2-.4-4-.7-4.5-.7-1.2-.2-53.2.5-59.5.3-2.5.8-7 1.2-10 .3-3 .8-6.2 1-7 .2-.8.6-3.8 1-6.5.3-2.8 1.1-7 1.6-9.4.5-2.4.7-4.6.4-4.9-.2-.3-.1-1 .5-1.7.5-.6 1.1-2.7 1.4-4.6.3-1.9 1.2-5.7 2-8.4.8-2.8 1.7-6.1 2-7.5.4-2.3 4.9-16.5 6.3-20 .3-.8.5-1.8.5-2.3-.1-.4.3-.7.9-.7.5 0 .7-.4.4-1-.5-.9 2-7.6 5-13 .7-1.4 1.4-3 1.4-3.5.2-2.2 1.4-5.1 2.6-6.5.8-.8 1.3-1.7 1.3-2-.1-.7 6-13 10.1-20.5 6.6-11.9 19.8-31.5 27-40 1.4-1.7 4.2-5.1 6.1-7.5 3.9-4.9 23.2-24.5 30-30.4 6.1-5.3 25.1-19.7 27-20.4.8-.3 2.4-1.4 3.4-2.4 1.1-1 2.6-1.8 3.3-1.8.7 0 1.3-.5 1.3-1 0-.6.4-1 .9-1s3.8-1.8 7.4-3.9c13.2-8.1 47.2-23.1 52.1-23.1.8 0 1.7-.4 2-.9.5-.8 6.1-2.3 9.1-2.6.6 0 1.5-.4 2.1-.7.6-.4 2.3-.9 3.8-1.2 1.5-.3 4.2-.9 5.9-1.5 1.8-.6 7.3-1.8 12.2-2.7 5-.9 9.9-1.8 11-2 1.1-.2 4.5-.7 7.5-1 3-.4 6.9-.8 8.5-1 1.7-.3 8.6-.7 15.5-1 6.9-.3 12.6-.7 12.7-.8.2-.2 12.3.2 23.8.8zM769 374.1c0 .5.4 1.7.9 2.7 2.4 4.6 7.1 16.9 7.5 19.9.1.7.5 1.6.9 1.9.4.4.7 1.6.7 2.6s.5 1.8 1.1 1.8c.5 0 .8.4.5.9-.4.5-.2 2.1.4 3.5.5 1.5 1.2 3.7 1.4 4.9.3 1.2 1.2 4.6 2 7.4.8 2.9 1.2 5.3.9 5.3-.3 0 0 .7.7 1.5.7.9 1 1.8.7 2.1-.3.3-.1 2 .4 3.7 1.3 4.2 1.6 5.4 2.3 10.7.3 2.5.8 5.4 1 6.5.8 4.7 1.9 12.3 2.2 16 .1 2.2.6 7.8 1 12.5 1.2 15.7.6 55.5-1 63.6-.2 1.2-.7 4.5-1.1 7.5-.3 3-1.3 9.2-2.2 13.9-.9 4.7-1.7 9.4-1.8 10.5 0 1.1-.4 2.9-.8 4-.3 1.1-.8 3.1-1.1 4.5-.5 3.3-2.4 10.4-4.3 16.1-.8 2.5-1.6 5.2-1.7 6-1.4 6.1-1.9 7.9-2.6 7.9-.3 0-.7.6-.8 1.2-.1 1.8-.7 3.9-1.9 6.8-.6 1.4-2 5.1-3.2 8.3-3.2 8.6-9.4 22.1-10.6 22.9-.5.4-.7.8-.3.8.4 0-.9 2.7-2.8 6.1-1.8 3.3-3.4 6.3-3.4 6.5 0 .2-2.2 4.1-5 8.5-2.7 4.4-5 8.5-5 9s-.4.9-.8.9c-.5 0-1.7 1.6-2.8 3.5-1 1.9-2.2 3.5-2.6 3.5-.5 0-.8.6-.8 1.3 0 .7-1 2.3-2.2 3.7-1.3 1.4-3.6 4.3-5.2 6.5-1.7 2.2-3.2 4.2-3.6 4.5-.3.3-1.8 2.3-3.5 4.5-5.8 7.9-34.9 36-42.9 41.4-1.2.8-2.3 1.8-2.6 2.2-1.1 1.5-23.1 15.9-31.5 20.7-7.7 4.3-21.4 11-32 15.7-1.6.7-5.9 2.3-9.5 3.5-3.6 1.2-7.4 2.6-8.5 3-2.4 1-10.3 3.4-16.5 5-4.3 1.2-5.7 1.5-11 2.6-1.4.3-3.2.7-4 .9-.8.2-1.5.4-1.5.5 0 .1-1.1.3-2.5.5-1.4.1-3.8.5-5.5.9-2.9.6-6.3 1.1-12.7 2.1-3.9.5-14.6 1.5-22.5 2-17.3 1.2-50.5 0-59.6-2.2-1.2-.2-4-.6-6.2-.7-2.2-.2-4.9-.6-6-.9-1.1-.4-3.6-.9-5.5-1.2-1.9-.3-9.6-2.2-17-4.1-16.5-4.3-15.2-4-17.2-4.8-.9-.4-2.2-.9-3-1-2.2-.3-16.2-5.8-17.5-6.9-.7-.5-1.3-.6-1.3-.3 0 .4-1.2.1-2.7-.7-9.6-5-13.5-6.7-14.7-6.7-.8 0-2-.8-2.5-1.8-.6-.9-1.1-1.4-1.1-1 0 .4-2.1-.4-4.8-1.9-2.6-1.5-5.6-3.1-6.7-3.7-4.7-2.5-18-11.1-18.3-11.8-.2-.5-1-.8-1.8-.8s-1.4-.5-1.4-1c0-.6-.7-1-1.5-1s-1.5-.4-1.5-.8-1.2-1.5-2.8-2.4c-2.9-1.8-13.4-10-19.1-15.2-7.6-6.7-27.1-26.3-27.1-27.2 0-.5 1.5-1.8 3.3-2.9 1.7-1 3.4-2.1 3.7-2.5.3-.4 3.4-2.6 7-5s7-4.8 7.5-5.3c.9-.7 20.5-14.6 33.8-23.9 6.9-4.8 17.9-12.7 19.8-14.1 1.7-1.3 2.2-1.6 9-6.1 2.4-1.5 4.9-3.3 5.4-4 .6-.6 3-2.5 5.5-4.1 2.5-1.7 5-3.3 5.5-3.8.6-.4 3.3-2.4 6-4.4 2.8-2.1 5.5-4.1 6-4.5.6-.4 7.3-5.4 15-11 7.7-5.5 15.2-11 16.6-12.2 1.5-1.2 3.7-2.9 5-3.8 4.3-3.1 25.4-18.7 26.6-19.7.8-.7 3-.2 7 1.6 5.8 2.6 10.6 4.1 15.4 4.8 1.5.2 4.4.8 6.5 1.3 6.4 1.4 23.2.7 32.5-1.4 5.5-1.2 5.5-1.2 16.7-5.4 1.7-.6 3.2-1.6 3.2-2.1s.7-.9 1.5-.9c4.5 0 24.2-17 31.2-27.1 3.3-4.6 11.5-19.9 10.8-19.9-.2 0 .4-1.9 1.4-4.3 1.5-3.5 2.7-7.7 3.7-13.2.1-.6.3-1.2.4-1.5 1.2-3.3 1.9-21.8 1-27.7-.7-4.7-2-3.3 14-15.5 5.2-4 9.7-7.6 9.8-8 .2-.4 1-.8 1.7-.8s1.5-.4 1.7-.8c.2-.4 5.3-4.6 11.4-9.3 6.1-4.6 12.6-9.6 14.5-11.2 1.9-1.5 7.2-5.7 11.9-9.3 4.7-3.6 9.2-7.1 10-7.7.8-.7 3.5-2.8 6-4.7 2.5-1.9 4.7-3.7 5-4 .3-.3 2.3-1.8 4.5-3.5 2.2-1.6 4.2-3.2 4.5-3.5.3-.3 2.5-2.1 5-4 5.6-4.3 6.8-5.2 8.3-6.5.7-.6 6.6-5.3 13.2-10.5s12.5-9.9 13.1-10.5c.6-.5 2.6-2.2 4.5-3.7 4.9-3.8 10.3-8.1 11.9-9.5.8-.7 5.8-4.7 11-8.9l9.4-7.6 5.3 11.2c2.9 6.1 5.3 11.6 5.3 12.1z"/></svg>